:SAMPLES-PER-SECOND 30
:FULLY-SPECIFIED
:DEGREES
218
root  -5.15786 40.5866 -2.32458 -5.88471 -58.313 5.08428
RightUpLeg  9.84285 -2.81206 2.32769
RightLeg  -5.06809 -47.7752 4.90852
RightFoot  -5.64297 -0.100393 1.26109
RightToes  -3.13006e-008 1.75238e-005 3.56266e-009
Spine  -12.1308 -1.14754 -3.24895
Spine1  13.1479 2.06239 -7.9352
HEad  -8.40924 -19.8149 0.289408
LeftShoulder1  3.58091 -7.08582 -27.7505
LeftArm  -34.1093 -16.2927 -52.5809
LeftForeArm  152.378 -77.1793 -134.383
LeftHand  -0.760516 -5.00169 8.78785
RightShoulder  2.68848 5.67815 23.104
RightArm  -65.1371 -4.18421 14.3991
RightForeArm  116.717 78.9836 114.963
RightHand  -1.02486 8.95921 -8.64168
LeftUpLeg  -0.0227723 0.0752648 3.37887
LeftLeg  1.57045 -16.4961 0.696572
LeftFoot  -1.31385 0.619218 -6.9641
LeftToes  4.78685e-008 1.46778e-008 1.34523e-009
219
root  -5.15561 40.5938 -2.32775 -5.79757 -58.4581 5.28019
RightUpLeg  9.60367 -2.7747 2.24626
RightLeg  -5.19408 -47.6086 4.95246
RightFoot  -5.56995 -0.098859 1.23338
RightToes  -3.13006e-008 1.75238e-005 3.56266e-009
Spine  -12.1027 -1.22033 -2.5976
Spine1  11.8455 2.03029 -8.77336
HEad  -5.90532 -20.274 -0.682893
LeftShoulder1  3.50361 -7.04793 -27.1217
LeftArm  -32.0237 -18.8982 -51.1636
LeftForeArm  153.497 -77.5514 -133.241
LeftHand  -0.796392 -5.80533 8.56783
RightShoulder  2.52391 5.50072 21.7537
RightArm  -62.3933 -1.36925 13.1198
RightForeArm  118.389 78.9796 115.603
RightHand  -1.08756 9.4426 -8.86499
LeftUpLeg  -0.137993 0.0211706 3.30608
LeftLeg  1.27744 -16.2577 0.725322
LeftFoot  -1.1945 0.623335 -6.93581
LeftToes  4.78685e-008 1.46778e-008 1.34523e-009
220
root  -5.14888 40.6032 -2.32885 -5.75238 -58.5606 5.44729
RightUpLeg  9.47794 -2.72926 2.18477
RightLeg  -5.4665 -47.5263 5.09778
RightFoot  -5.48216 -0.0981915 1.21914
RightToes  -3.13006e-008 1.75238e-005 3.56266e-009
Spine  -11.6686 -1.1611 -1.57401
Spine1  10.3345 2.10598 -9.88292
HEad  -3.74477 -21.3005 -1.74656
LeftShoulder1  3.57933 -7.29718 -27.0541
LeftArm  -31.0379 -21.4891 -49.9144
LeftForeArm  154.784 -77.5952 -133.371
LeftHand  -0.737788 -6.12409 7.76027
RightShoulder  2.25101 5.04371 19.9724
RightArm  -60.7662 0.952993 12.5961
RightForeArm  120.922 78.7144 118.281
RightHand  -0.975877 9.38242 -8.02906
LeftUpLeg  -0.160878 0.0179667 3.266
LeftLeg  0.912008 -16.1205 0.740318
LeftFoot  -1.06425 0.642745 -7.07194
LeftToes  4.78685e-008 1.46778e-008 1.34523e-009
221
root  -5.13543 40.6081 -2.33157 -5.66523 -58.6334 5.56091
RightUpLeg  9.26317 -2.71757 2.11691
RightLeg  -5.48795 -47.4261 5.10943
RightFoot  -5.45059 -0.0968108 1.19392
RightToes  -3.13006e-008 1.75238e-005 3.56266e-009
Spine  -11.3692 -1.1212 -0.708694
Spine1  9.35317 2.23551 -11.0421
HEad  -2.52034 -21.1442 -2.16081
LeftShoulder1  3.52218 -7.26346 -26.6116
LeftArm  -30.991 -23.7315 -49.5875
LeftForeArm  156.601 -77.5619 -133.917
LeftHand  -0.762179 -6.41789 7.81524
RightShoulder  2.25586 5.18511 19.5562
RightArm  -60.481 2.67413 11.4398
RightForeArm  124.016 78.302 121.775
RightHand  -1.10246 9.62747 -8.88646
LeftUpLeg  -0.265127 -0.0440774 3.20876
LeftLeg  0.692213 -15.943 0.790537
LeftFoot  -0.984637 0.655526 -7.16254
LeftToes  4.78685e-008 1.46778e-008 1.34523e-009
222
root  -5.11274 40.6095 -2.34736 -5.5713 -58.6448 5.53189
RightUpLeg  9.10537 -2.67297 2.14698
RightLeg  -5.35618 -47.4267 5.00289
RightFoot  -5.44948 -0.100901 1.25372
RightToes  -3.13006e-008 1.75238e-005 3.56266e-009
Spine  -11.0005 -1.04159 0.0846206
Spine1  8.82408 2.41819 -12.0639
HEad  -2.26033 -21.4295 -2.13809
LeftShoulder1  3.46573 -7.19038 -26.2964
LeftArm  -31.4042 -24.9223 -49.9507
LeftForeArm  159.218 -76.9727 -136.63
LeftHand  -0.831841 -6.28895 8.57494
RightShoulder  2.19943 5.10428 19.1141
RightArm  -61.0952 3.47441 11.265
RightForeArm  128.128 77.6979 126.083
RightHand  -1.05376 10.0175 -8.30559
LeftUpLeg  -0.398087 -0.0381719 3.23568
LeftLeg  0.705875 -15.9706 0.779141
LeftFoot  -0.979104 0.668103 -7.30224
LeftToes  4.78685e-008 1.46778e-008 1.34523e-009
223
root  -5.09492 40.6095 -2.36375 -5.42365 -58.4811 5.4085
RightUpLeg  9.01648 -2.62093 2.24863
RightLeg  -5.38043 -47.7072 5.03137
RightFoot  -5.42009 -0.101708 1.26276
RightToes  -3.13006e-008 1.75238e-005 3.56266e-009
Spine  -10.5843 -1.06943 0.478841
Spine1  8.46111 2.4185 -12.5577
HEad  -2.37107 -21.9342 -1.75094
LeftShoulder1  3.4682 -7.11783 -26.5505
LeftArm  -32.7123 -24.6185 -50.2666
LeftForeArm  163.159 -76.1878 -139.926
LeftHand  -0.698308 -5.74655 7.60113
RightShoulder  2.16722 5.10137 18.7198
RightArm  -62.1968 3.0564 12.3444
RightForeArm  133.786 76.5698 132.306
RightHand  -1.02799 9.47893 -8.38408
LeftUpLeg  -0.535332 -0.00600532 3.3022
LeftLeg  0.766234 -16.0944 0.749317
LeftFoot  -0.906889 0.664774 -7.2286
LeftToes  4.78685e-008 1.46778e-008 1.34523e-009
224
root  -5.09972 40.6093 -2.37726 -5.38056 -58.2935 5.36525
RightUpLeg  9.02029 -2.6168 2.28284
RightLeg  -5.41926 -47.8501 5.08975
RightFoot  -5.41852 -0.0989435 1.2166
RightToes  -3.13006e-008 1.75238e-005 3.56266e-009
Spine  -10.4881 -1.0714 0.377096
Spine1  8.59976 2.45194 -12.5794
HEad  -2.3699 -22.1859 -1.5126
LeftShoulder1  3.54086 -7.13382 -27.2045
LeftArm  -34.2755 -22.8746 -50.5699
LeftForeArm  167.265 -75.1351 -143.531
LeftHand  -0.781247 -5.65977 8.52114
RightShoulder  2.20671 5.14188 19.076
RightArm  -63.6285 1.7266 14.2854
RightForeArm  139.347 75.2687 137.817
RightHand  -1.16482 9.69184 -9.32453
LeftUpLeg  -0.609985 0.0107309 3.33216
LeftLeg  0.826948 -16.3216 0.721556
LeftFoot  -0.89503 0.662994 -7.19384
LeftToes  4.78685e-008 1.46778e-008 1.34523e-009
225
root  -5.12411 40.6027 -2.39471 -5.34547 -58.0075 5.34158
RightUpLeg  9.10992 -2.6018 2.34812
RightLeg  -5.65211 -48.1432 5.28316
RightFoot  -5.43865 -0.0967476 1.17955
RightToes  -3.13006e-008 1.75238e-005 3.56266e-009
Spine  -10.5436 -1.09502 0.0109437
Spine1  8.9949 2.46348 -12.3538
HEad  -2.47938 -22.1671 -1.08929
LeftShoulder1  3.75509 -7.30613 -28.6953
LeftArm  -36.2755 -19.65 -50.2918
LeftForeArm  171.336 -73.7471 -147.325
LeftHand  -0.739149 -6.18388 7.70865
RightShoulder  2.47019 5.7232 20.4267
RightArm  -65.1509 -1.27812 16.3902
RightForeArm  143.662 73.6493 142.867
RightHand  -1.34362 9.61506 -10.7264
LeftUpLeg  -0.656397 0.0417172 3.36385
LeftLeg  0.829744 -16.6368 0.70129
LeftFoot  -0.887956 0.660601 -7.16187
LeftToes  4.78685e-008 1.46778e-008 1.34523e-009
226
root  -5.16334 40.5972 -2.40906 -5.42184 -57.8323 5.34604
RightUpLeg  9.30704 -2.5619 2.42214
RightLeg  -5.88504 -48.3467 5.43658
RightFoot  -5.46335 -0.0938155 1.13139
RightToes  -3.13006e-008 1.75238e-005 3.56266e-009
Spine  -11.0275 -1.05219 -0.275932
Spine1  10.1809 2.73075 -12.5031
HEad  -2.64035 -22.7015 -0.389151
LeftShoulder1  3.92801 -7.4124 -29.9762
LeftArm  -38.0896 -15.3713 -50.2593
LeftForeArm  173.174 -72.3255 -150.274
LeftHand  -0.617672 -5.61292 6.81712
RightShoulder  2.73284 5.99579 22.5495
RightArm  -65.893 -5.22993 18.983
RightForeArm  146.451 72.1488 146.504
RightHand  -1.58419 9.9634 -12.3046
LeftUpLeg  -0.56769 0.0896502 3.3981
LeftLeg  0.840921 -16.8578 0.69849
LeftFoot  -0.918696 0.662168 -7.20207
LeftToes  4.78685e-008 1.46778e-008 1.34523e-009
227
root  -5.2163 40.5873 -2.42001 -5.65111 -57.5521 5.42812
RightUpLeg  9.59027 -2.64878 2.40459
RightLeg  -5.97951 -48.5071 5.53817
RightFoot  -5.53578 -0.0927112 1.11198
RightToes  -3.13006e-008 1.75238e-005 3.56266e-009
Spine  -12.1758 -0.922345 -0.94951
Spine1  12.7444 3.18414 -12.1461
HEad  -3.63178 -22.7161 0.533732
LeftShoulder1  3.89943 -7.16158 -30.5535
LeftArm  -39.0643 -11.4356 -50.6561
LeftForeArm  173.709 -71.5933 -151.549
LeftHand  -0.863931 -5.73475 9.33728
RightShoulder  2.93914 6.06395 24.6341
RightArm  -65.4281 -10.1122 21.1682
RightForeArm  146.805 70.9957 148.622
RightHand  -1.68217 10.015 -12.9938
LeftUpLeg  -0.374329 0.0825171 3.37197
LeftLeg  0.854433 -17.137 0.713704
LeftFoot  -1.03497 0.667035 -7.3201
LeftToes  4.78685e-008 1.46778e-008 1.34523e-009
228
root  -5.25362 40.5716 -2.44266 -5.99159 -57.2154 5.47159
RightUpLeg  9.83135 -2.93574 2.28116
RightLeg  -5.5112 -48.5368 5.38163
RightFoot  -5.81195 -0.0988966 1.20611
RightToes  -3.13006e-008 1.75238e-005 3.56266e-009
Spine  -12.4673 -0.434086 -1.98821
Spine1  14.8009 3.7425 -10.9441
HEad  -5.05119 -24.4384 1.55629
LeftShoulder1  3.9999 -7.3282 -30.9271
LeftArm  -38.9736 -7.99879 -50.895
LeftForeArm  172.596 -71.3615 -151.754
LeftHand  -0.776261 -6.04993 8.17698
RightShoulder  2.8581 5.51697 25.6319
RightArm  -64.1375 -15.9714 23.0767
RightForeArm  146.394 70.001 150.179
RightHand  -1.54942 9.90633 -12.0694
LeftUpLeg  -0.166815 0.0488342 3.3364
LeftLeg  1.07166 -17.4482 0.720576
LeftFoot  -1.19073 0.664106 -7.39131
LeftToes  4.78685e-008 1.46778e-008 1.34523e-009
229
root  -5.26192 40.5576 -2.45764 -6.3824 -57.0418 5.41591
RightUpLeg  10.1133 -3.14349 2.22507
RightLeg  -4.83173 -48.4887 4.97757
RightFoot  -6.03094 -0.104802 1.29636
RightToes  -3.13006e-008 1.75238e-005 3.56266e-009
Spine  -12.9554 -0.383424 -3.07638
Spine1  17.2213 3.83537 -9.6967
HEad  -7.64984 -23.8951 2.3307
LeftShoulder1  3.88265 -7.15841 -30.4088
LeftArm  -38.7063 -5.41057 -50.7883
LeftForeArm  171.504 -71.2095 -151.836
LeftHand  -0.643787 -5.58184 7.1277
RightShoulder  2.96167 5.55617 26.6865
RightArm  -62.2251 -19.5442 24.008
RightForeArm  146.733 69.8418 150.462
RightHand  -1.2478 9.62789 -10.0016
LeftUpLeg  0.109403 -0.044521 3.28764
LeftLeg  1.43779 -17.5681 0.784413
LeftFoot  -1.39257 0.652281 -7.39277
LeftToes  4.78685e-008 1.46778e-008 1.34523e-009
